<svg xmlns="http://www.w3.org/2000/svg" height="512pt" version="1.1" viewBox="0 0 512 512" width="512pt">
<g id="surface1">
<path d="M 512 256 C 512 397.386719 397.386719 512 256 512 C 114.613281 512 0 397.386719 0 256 C 0 114.613281 114.613281 0 256 0 C 397.386719 0 512 114.613281 512 256 Z M 512 256 " style=" stroke:none;fill-rule:nonzero;fill:rgb(68.627451%,78.039216%,15.686275%);fill-opacity:1;" />
<path d="M 353.3125 75.160156 L 196.328125 75.160156 C 190.09375 75.160156 185.039062 80.214844 185.039062 86.449219 L 185.039062 143.71875 L 364.601562 143.71875 L 364.601562 86.449219 C 364.601562 80.214844 359.546875 75.160156 353.3125 75.160156 Z M 353.3125 75.160156 " style=" stroke:none;fill-rule:nonzero;fill:rgb(35.686275%,70.980392%,90.588235%);fill-opacity:1;" />
<path d="M 267.289062 75.160156 L 196.328125 75.160156 C 190.09375 75.160156 185.039062 80.214844 185.039062 86.449219 L 185.039062 143.71875 L 256 143.71875 L 256 86.449219 C 256 80.214844 261.054688 75.160156 267.289062 75.160156 Z M 267.289062 75.160156 " style=" stroke:none;fill-rule:nonzero;fill:rgb(27.843137%,58.823529%,80.392157%);fill-opacity:1;" />
<path d="M 427.847656 41.648438 L 369.914062 41.648438 C 366.980469 41.648438 364.601562 44.027344 364.601562 46.960938 L 364.601562 143.71875 L 433.160156 143.71875 L 433.160156 46.960938 C 433.160156 44.027344 430.78125 41.648438 427.847656 41.648438 Z M 427.847656 41.648438 " style=" stroke:none;fill-rule:nonzero;fill:rgb(99.607843%,31.372549%,37.254902%);fill-opacity:1;" />
<path d="M 404.191406 41.648438 L 369.910156 41.648438 C 366.976562 41.648438 364.601562 44.027344 364.601562 46.960938 L 364.601562 143.71875 L 398.878906 143.71875 L 398.878906 46.960938 C 398.882812 44.027344 401.257812 41.648438 404.191406 41.648438 Z M 404.191406 41.648438 " style=" stroke:none;fill-rule:nonzero;fill:rgb(87.058824%,21.176471%,28.235294%);fill-opacity:1;" />
<path d="M 328.660156 106.210938 C 323.519531 106.210938 319.351562 102.042969 319.351562 96.902344 L 319.351562 63.34375 C 319.351562 38.789062 299.375 18.8125 274.820312 18.8125 C 250.265625 18.8125 230.285156 38.789062 230.285156 63.34375 L 230.285156 96.902344 C 230.285156 102.042969 226.117188 106.210938 220.976562 106.210938 C 215.835938 106.210938 211.667969 102.042969 211.667969 96.902344 L 211.667969 63.34375 C 211.667969 28.523438 240 0.191406 274.820312 0.191406 C 309.640625 0.191406 337.972656 28.523438 337.972656 63.34375 L 337.972656 96.902344 C 337.972656 102.042969 333.804688 106.210938 328.660156 106.210938 Z M 328.660156 106.210938 " style=" stroke:none;fill-rule:nonzero;fill:rgb(100%,99.607843%,100%);fill-opacity:1;" />
<path d="M 44.808594 400.703125 L 467.191406 400.703125 C 483.222656 377.351562 495.476562 351.207031 503.082031 323.148438 L 8.917969 323.148438 C 16.523438 351.207031 28.777344 377.351562 44.808594 400.703125 Z M 44.808594 400.703125 " style=" stroke:none;fill-rule:nonzero;fill:rgb(80%,87.058824%,23.921569%);fill-opacity:1;" />
<path d="M 267.632812 323.148438 L 8.917969 323.148438 C 16.523438 351.207031 28.777344 377.351562 44.808594 400.703125 L 267.632812 400.703125 Z M 267.632812 323.148438 " style=" stroke:none;fill-rule:nonzero;fill:rgb(56.862745%,68.627451%,7.058824%);fill-opacity:1;" />
<path d="M 33.144531 382.046875 C 77.125 459.636719 160.441406 512 256 512 C 351.558594 512 434.875 459.636719 478.855469 382.046875 Z M 33.144531 382.046875 " style=" stroke:none;fill-rule:nonzero;fill:rgb(56.862745%,68.627451%,7.058824%);fill-opacity:1;" />
<path d="M 314.542969 382.046875 L 33.144531 382.046875 C 77.125 459.636719 160.441406 512 256 512 C 269.070312 512 281.914062 511.011719 294.457031 509.121094 C 227.839844 490.582031 236.300781 382.046875 314.542969 382.046875 Z M 314.542969 382.046875 " style=" stroke:none;fill-rule:nonzero;fill:rgb(46.27451%,57.647059%,3.921569%);fill-opacity:1;" />
<path d="M 245.179688 443.535156 C 236.003906 427.644531 215.6875 422.203125 199.800781 431.375 C 183.914062 440.550781 178.46875 460.867188 187.640625 476.753906 C 196.816406 492.644531 217.132812 498.085938 233.019531 488.914062 C 248.910156 479.738281 254.351562 459.421875 245.179688 443.535156 Z M 245.179688 443.535156 " style=" stroke:none;fill-rule:nonzero;fill:rgb(27.843137%,28.627451%,47.45098%);fill-opacity:1;" />
<path d="M 208.195312 464.902344 C 201.113281 452.632812 202.75 437.730469 211.175781 427.351562 C 207.277344 427.972656 203.425781 429.296875 199.804688 431.386719 C 183.917969 440.558594 178.472656 460.875 187.648438 476.765625 C 196.820312 492.65625 217.136719 498.097656 233.027344 488.925781 C 236.648438 486.835938 239.71875 484.160156 242.203125 481.097656 C 229.003906 483.203125 215.277344 477.171875 208.195312 464.902344 Z M 208.195312 464.902344 " style=" stroke:none;fill-rule:nonzero;fill:rgb(21.960784%,23.529412%,41.960784%);fill-opacity:1;" />
<path d="M 475.089844 143.585938 L 129.859375 143.585938 L 180.109375 323.148438 L 431.496094 323.148438 C 438.078125 323.148438 443.828125 318.699219 445.484375 312.328125 L 485.683594 157.277344 C 487.476562 150.347656 482.246094 143.585938 475.089844 143.585938 Z M 475.089844 143.585938 " style=" stroke:none;fill-rule:nonzero;fill:rgb(27.843137%,28.627451%,47.45098%);fill-opacity:1;" />
<path d="M 215.097656 308.585938 L 178.21875 176.796875 C 174.742188 164.375 178.484375 152.015625 186.507812 143.589844 L 129.859375 143.589844 L 180.109375 323.148438 L 223.390625 323.148438 C 219.5625 319.144531 216.667969 314.1875 215.097656 308.585938 Z M 215.097656 308.585938 " style=" stroke:none;fill-rule:nonzero;fill:rgb(21.960784%,23.529412%,41.960784%);fill-opacity:1;" />
<path d="M 435.539062 366.53125 L 194.78125 366.53125 L 110.859375 66.65625 C 106.386719 50.671875 91.667969 39.503906 75.066406 39.503906 L 72.421875 39.503906 L 72.421875 73.679688 L 75.066406 73.679688 C 76.40625 73.679688 77.589844 74.578125 77.953125 75.867188 L 165.363281 388.222656 C 167.429688 395.601562 174.15625 400.703125 181.816406 400.703125 L 435.539062 400.703125 C 444.976562 400.703125 452.625 393.054688 452.625 383.617188 C 452.625 374.179688 444.976562 366.53125 435.539062 366.53125 Z M 435.539062 366.53125 " style=" stroke:none;fill-rule:nonzero;fill:rgb(100%,100%,100%);fill-opacity:1;" />
<path d="M 72.421875 39.503906 L 17.085938 39.503906 C 7.648438 39.503906 0 47.15625 0 56.59375 C 0 66.027344 7.648438 73.679688 17.085938 73.679688 L 72.421875 73.679688 Z M 72.421875 39.503906 " style=" stroke:none;fill-rule:nonzero;fill:rgb(27.843137%,28.627451%,47.45098%);fill-opacity:1;" />
<path d="M 36.210938 56.59375 C 36.210938 47.15625 43.863281 39.507812 53.296875 39.507812 L 17.085938 39.507812 C 7.648438 39.503906 0 47.15625 0 56.59375 C 0 66.027344 7.648438 73.679688 17.085938 73.679688 L 53.296875 73.679688 C 43.859375 73.679688 36.210938 66.027344 36.210938 56.59375 Z M 36.210938 56.59375 " style=" stroke:none;fill-rule:nonzero;fill:rgb(21.960784%,23.529412%,41.960784%);fill-opacity:1;" />
<path d="M 216.414062 469.652344 C 211.125 469.652344 206.921875 465.328125 206.921875 460.160156 C 206.921875 454.109375 212.492188 449.6875 218.277344 450.847656 C 222.859375 451.828125 225.90625 455.703125 225.90625 460.160156 C 225.90625 465.441406 221.578125 469.652344 216.414062 469.652344 Z M 216.414062 469.652344 " style=" stroke:none;fill-rule:nonzero;fill:rgb(48.627451%,50.588235%,72.54902%);fill-opacity:1;" />
<path d="M 202.703125 383.617188 C 202.703125 375.964844 207.324219 369.394531 213.929688 366.53125 L 194.78125 366.53125 L 110.859375 66.65625 C 106.386719 50.671875 91.667969 39.507812 75.066406 39.507812 L 72.425781 39.507812 L 72.425781 73.679688 L 75.066406 73.679688 C 76.40625 73.679688 77.59375 74.578125 77.953125 75.867188 L 165.363281 388.222656 C 167.429688 395.601562 174.15625 400.703125 181.820312 400.703125 L 213.929688 400.703125 C 207.324219 397.839844 202.703125 391.269531 202.703125 383.617188 Z M 202.703125 383.617188 " style=" stroke:none;fill-rule:nonzero;fill:rgb(80%,90.196078%,92.941176%);fill-opacity:1;" />
<path d="M 422.960938 443.546875 C 413.789062 427.65625 393.472656 422.214844 377.582031 431.386719 C 361.695312 440.558594 356.25 460.878906 365.425781 476.765625 C 367.121094 479.707031 369.203125 482.285156 371.5625 484.484375 C 390.984375 474.640625 408.980469 462.386719 425.164062 448.125 C 424.554688 446.566406 423.824219 445.035156 422.960938 443.546875 Z M 422.960938 443.546875 " style=" stroke:none;fill-rule:nonzero;fill:rgb(27.843137%,28.627451%,47.45098%);fill-opacity:1;" />
<path d="M 385.972656 464.902344 C 378.890625 452.632812 380.527344 437.730469 388.953125 427.351562 C 385.054688 427.972656 381.203125 429.296875 377.582031 431.386719 C 361.695312 440.558594 356.25 460.878906 365.425781 476.765625 C 367.121094 479.703125 369.203125 482.285156 371.5625 484.484375 C 378.65625 480.886719 385.5625 476.964844 392.257812 472.746094 C 389.835938 470.519531 387.703125 467.902344 385.972656 464.902344 Z M 385.972656 464.902344 " style=" stroke:none;fill-rule:nonzero;fill:rgb(21.960784%,23.529412%,41.960784%);fill-opacity:1;" />
<path d="M 394.191406 469.652344 C 388.902344 469.652344 384.699219 465.328125 384.699219 460.160156 C 384.699219 454.109375 390.269531 449.6875 396.054688 450.847656 C 400.636719 451.828125 403.683594 455.703125 403.683594 460.160156 C 403.683594 465.441406 399.355469 469.652344 394.191406 469.652344 Z M 394.191406 469.652344 " style=" stroke:none;fill-rule:nonzero;fill:rgb(48.627451%,50.588235%,72.54902%);fill-opacity:1;" />
<path d="M 278.90625 12.332031 C 278.90625 6.90625 282.882812 2.421875 288.082031 1.605469 C 283.804688 0.6875 279.367188 0.191406 274.820312 0.191406 C 240 0.191406 211.671875 28.523438 211.671875 63.34375 L 211.671875 96.902344 C 211.671875 102.042969 215.839844 106.210938 220.980469 106.210938 C 226.121094 106.210938 230.289062 102.042969 230.289062 96.902344 L 230.289062 63.34375 C 230.289062 38.789062 250.265625 18.8125 274.820312 18.8125 C 277.070312 18.8125 279.277344 18.980469 281.4375 19.304688 C 279.859375 17.417969 278.90625 14.988281 278.90625 12.332031 Z M 278.90625 12.332031 " style=" stroke:none;fill-rule:nonzero;fill:rgb(80%,90.196078%,92.941176%);fill-opacity:1;" />
</g>
</svg>